<svg id="Warstwa_1" data-name="Warstwa 1" xmlns="http://www.w3.org/2000/svg" viewBox="0 0 1652.04 383.96"><defs><style>.cls-1{fill:#f7931e;}.cls-2{fill:none;}.cls-3{stroke:#000;stroke-miterlimit:10;stroke-width:0.25px;}</style></defs><title>logo</title><path class="cls-1" d="M237.53,273.82c-1.06,1.38-2.17,2.71-3.33,4-14.31,16-36.07,26.22-60.43,26.22s-46.11-10.22-60.42-26.22a67.56,67.56,0,0,1-17.6-45.19c0-39.43,34.94-71.41,78-71.41,26.23,0,49.44,11.85,63.59,30l20.92-12.74c-18.65-24.35-49.54-40.27-84.51-40.27-57,0-103.14,42.27-103.14,94.41a87.68,87.68,0,0,0,12.56,45.19l0,.05,67.57,140.87c9.25,19.3,36.73,19.3,46,0l62.54-130.41Z" transform="translate(-60.81 -73.25)"/><path class="cls-2" d="M243.8,180l-18.35,11.41q-23.77-31.58-64.89-31.58-32.85,0-54.57,21.14T84.28,232.35a72.91,72.91,0,0,0,10,37,70,70,0,0,0,27.41,26.91q17.41,9.58,39,9.58,39.61,0,64.72-31.58l18.35,12.07a86.68,86.68,0,0,1-34.63,30.13q-21.73,10.69-49.51,10.7Q117,327.15,88.91,300t-28.1-66A94.23,94.23,0,0,1,74,185.57a92.54,92.54,0,0,1,36.12-35q23-12.57,51.41-12.57a109.63,109.63,0,0,1,34.46,5.46,96,96,0,0,1,28.19,14.22A77.43,77.43,0,0,1,243.8,180Z" transform="translate(-60.81 -73.25)"/><path class="cls-1" d="M467.45,142.67V322.52H444.64V291.61q-14.55,17.7-32.64,26.62a88.31,88.31,0,0,1-39.59,8.92q-38.19,0-65.22-27.69t-27-67.36q0-38.83,27.27-66.45T373.07,138q22.14,0,40.08,9.43t31.49,28.26V142.67ZM375,160.36a69.8,69.8,0,0,0-61.67,36.16,72.87,72.87,0,0,0,.08,72.65,70.92,70.92,0,0,0,26.17,27,68.37,68.37,0,0,0,35.25,9.66,72.23,72.23,0,0,0,36-9.58A67,67,0,0,0,437,270.33q9.16-16.35,9.16-36.82,0-31.2-20.56-52.18T375,160.36Z" transform="translate(-60.81 -73.25)"/><path class="cls-1" d="M510.76,142.67H534.4V169q10.58-15.54,22.32-23.23A44,44,0,0,1,581.18,138q9.59,0,20.5,6.12l-12.07,19.51q-7.27-3.15-12.23-3.14-11.57,0-22.31,9.5T538.7,199.54q-4.31,15.38-4.3,62.15v60.83H510.76Z" transform="translate(-60.81 -73.25)"/><path d="M626.48,79.36h48.43q40.5,0,54.88,3.31,21.66,5,35.21,21.27t13.56,40.14q0,19.86-9.34,34.92t-26.7,22.76q-17.35,7.69-47.94,7.86L782,322.52H752l-87.46-112.9H650.78v112.9h-24.3Zm24.3,23.81v82.65l41.89.33q24.33,0,36-4.63a37.48,37.48,0,0,0,18.21-14.79A41.14,41.14,0,0,0,753.43,144a39.45,39.45,0,0,0-6.62-22.24,37,37,0,0,0-17.39-14.3q-10.75-4.29-35.76-4.29Z" transform="translate(-60.81 -73.25)"/><path d="M978.24,262.85l19.51,10.25q-9.6,18.84-22.17,30.41a88,88,0,0,1-28.3,17.61q-15.72,6-35.57,6-44,0-68.83-28.84t-24.82-65.22a96.12,96.12,0,0,1,21-61q26.64-34,71.31-34.06,46,0,73.46,34.88,19.53,24.65,19.86,61.5H841.87q.64,31.34,20,51.37t47.83,20a76.74,76.74,0,0,0,26.73-4.78,70.21,70.21,0,0,0,22.09-12.68Q967.66,280.47,978.24,262.85Zm0-48.43q-4.63-18.53-13.49-29.59A63.76,63.76,0,0,0,941.33,167a71.83,71.83,0,0,0-30.62-6.77q-26.48,0-45.51,17-13.91,12.41-21,37.2Z" transform="translate(-60.81 -73.25)"/><path d="M1046.84,142.67H1070v32.24q13.88-18.51,30.74-27.69a75.53,75.53,0,0,1,36.7-9.18q20.16,0,35.79,10.25a61.14,61.14,0,0,1,23.06,27.61q7.44,17.35,7.44,54v92.57h-23.15V236.73q0-31.08-2.57-41.49-4-17.85-15.43-26.86t-29.76-9a57.09,57.09,0,0,0-37.61,13.88,65.07,65.07,0,0,0-21.91,34.39Q1070,221,1070,256.57v65.95h-23.15Z" transform="translate(-60.81 -73.25)"/><path d="M1273.47,75.89h23.15v66.78h36.69v20h-36.69V322.52h-23.15V162.68H1241.9v-20h31.57Z" transform="translate(-60.81 -73.25)"/><path d="M1547.22,142.67V322.52H1524.4V291.61q-14.54,17.7-32.64,26.62a88.31,88.31,0,0,1-39.59,8.92q-38.19,0-65.21-27.69t-27-67.36q0-38.83,27.27-66.45T1452.83,138q22.14,0,40.08,9.43t31.49,28.26V142.67Zm-92.49,17.69a69.83,69.83,0,0,0-61.67,36.16,72.87,72.87,0,0,0,.08,72.65,70.92,70.92,0,0,0,26.17,27,68.37,68.37,0,0,0,35.25,9.66,72.23,72.23,0,0,0,36-9.58,67,67,0,0,0,26.17-25.92q9.16-16.35,9.16-36.82,0-31.2-20.56-52.18T1454.73,160.36Z" transform="translate(-60.81 -73.25)"/><path d="M1595.82,73.25H1619V322.52h-23.14Z" transform="translate(-60.81 -73.25)"/><path class="cls-1" d="M1692.52,286.16a19.58,19.58,0,0,1,14.38,5.95,20.66,20.66,0,0,1,0,29,20.16,20.16,0,0,1-28.76,0,20.66,20.66,0,0,1,0-29A19.57,19.57,0,0,1,1692.52,286.16Z" transform="translate(-60.81 -73.25)"/><path d="M295.48,341.36q20.43,0,34.21,13.64t13.77,33.58a46.95,46.95,0,0,1-47.25,47.27q-20,0-33.78-13.69A45.06,45.06,0,0,1,248.66,389a48,48,0,0,1,6.27-24,46.35,46.35,0,0,1,40.55-23.61Zm.39,8.75A38.4,38.4,0,0,0,263,369.33,39,39,0,0,0,258,389a37.83,37.83,0,0,0,37.91,38.13A38.44,38.44,0,0,0,315.26,422a36.46,36.46,0,0,0,13.91-13.89,39.05,39.05,0,0,0,5-19.59,38.05,38.05,0,0,0-5-19.37,37.31,37.31,0,0,0-14.06-13.87A38.06,38.06,0,0,0,295.87,350.11Z" transform="translate(-60.81 -73.25)"/><path d="M361.44,343.63h17.92q15.4,0,20.79,1.34a23.12,23.12,0,0,1,12.6,7.8q4.89,5.91,4.89,14.83t-4.77,14.83a23.4,23.4,0,0,1-13.15,7.86q-6.12,1.47-22.87,1.47h-6.42v41.83h-9Zm9,8.8V383l15.23.19q9.22,0,13.51-1.68A13.89,13.89,0,0,0,405.9,376a15.08,15.08,0,0,0,2.45-8.4,14.87,14.87,0,0,0-2.45-8.27,13.52,13.52,0,0,0-6.45-5.34q-4-1.59-13.12-1.59Z" transform="translate(-60.81 -73.25)"/><path d="M478.46,341.36q20.44,0,34.21,13.64t13.77,33.58a46.95,46.95,0,0,1-47.24,47.27q-20,0-33.78-13.69A45.06,45.06,0,0,1,431.65,389a48,48,0,0,1,6.27-24,46.32,46.32,0,0,1,40.54-23.61Zm.4,8.75A38.37,38.37,0,0,0,446,369.33a39,39,0,0,0-5,19.65,37.85,37.85,0,0,0,37.92,38.13A38.46,38.46,0,0,0,498.25,422a36.37,36.37,0,0,0,13.9-13.89,39.06,39.06,0,0,0,5-19.59,38.06,38.06,0,0,0-5-19.37,37.21,37.21,0,0,0-14-13.87A38.06,38.06,0,0,0,478.86,350.11Z" transform="translate(-60.81 -73.25)"/><path d="M544.48,343.63h9v81.28h34.62v8.68H544.48Z" transform="translate(-60.81 -73.25)"/><path d="M602.4,343.63H654v8.8H611.39v28.2h42.2v8.81h-42.2v35.35h42.2v8.8H602.4Z" transform="translate(-60.81 -73.25)"/><path class="cls-3" d="M709.45,388.32l54.61,48.47s53.83,1.09,70.75-1.64,55.73-7,77.94-3.72,127.87,11.86,152.3,11.78,160.85-6.19,182.75-7.68c0,0-105.45-5.48-156.74-5.16s-56.27-.92-95.72-6.14-42.42-12.93-42.42-12.93,23-20.55,83.31-32.56,152.49-21.44,213.94-16.13,78.47,4.16,140.24,14.19c0,0-55.43-24.7-138.88-30.09,0,0-63.67-2-107.45,1-34.14,2.32-118.75,14.4-163.79,34.86a343.27,343.27,0,0,1-120.12,30.31C826.12,415.18,742,400.33,709.45,388.32Z" transform="translate(-60.81 -73.25)"/><path class="cls-1" d="M997.22,414.61l517.86-38.38s126.06-14.9,169,42.28c0,0,8.15,12.09,12.41,38.69,0,0-23.21-53.77-94.49-60s-234,8-294.85,12.15-192.26,11.49-192.26,11.49S1051.69,425.14,997.22,414.61Z" transform="translate(-60.81 -73.25)"/></svg>